<?xml version="1.0" encoding="UTF-8" standalone="no"?>
<!-- Created with Inkscape (http://www.inkscape.org/) -->
<svg
   xmlns:svg="http://www.w3.org/2000/svg"
   xmlns="http://www.w3.org/2000/svg"
   xmlns:xlink="http://www.w3.org/1999/xlink"
   version="1.0"
   width="900"
   height="600"
   id="svg2">
  <defs
     id="defs4" />
  <rect
     width="900"
     height="600"
     x="-2.7832032e-06"
     y="-9.9121098e-07"
     id="rect3274"
     style="fill:#5b92e5" />
  <use
     transform="matrix(0.1736482,0.9848077,-0.9848077,0.1736482,637.70057,-220.09538)"
     id="use3508"
     x="0"
     y="0"
     width="900"
     height="600"
     xlink:href="#path3472" />
  <g
     transform="matrix(1.2031816,0,0,1.2031816,-91.432006,-67.29028)"
     id="g3276"
     style="fill:#ffffff">
    <path
       d="M 569.38574,394.10938 C 558.61133,396.99463 547.11426,397.92236 536.65039,401.49072 C 554.37305,386.29492 553.36133,362.78223 565.18555,344.88477 C 568.95215,339.81738 572.06543,334.50586 576.45605,329.69727 C 569.26367,344.125 572.38281,362.84375 564.12012,376.84473 C 560.93945,382.40625 556.39063,387.80176 551.36035,392.16992 C 553.00391,392.1084 554.44238,390.68555 555.8877,389.73535 C 569.30859,376.34277 586.8418,372.59766 601.35938,361.7168 C 607.1748,357.08301 612.50098,351.01074 615.05762,344.44336 C 612.31055,366.66309 590.20508,387.48926 569.38574,394.10938 L 569.38574,394.10938 z"
       id="path3278"
       style="fill:#ffffff" />
    <path
       d="M 617.73535,304.14551 C 611.16895,313.48926 603.22559,322.1875 597.15918,331.68359 C 597.83594,324.16504 598.72656,314.91992 595.79785,307.79785 C 590.72266,292.46094 586.26367,276.88867 584.8252,260.05664 L 585.02344,253.62012 C 588.84277,270.80957 605.72852,282.62598 604.66309,301.90723 C 605.0498,306.58008 603.60449,310.55273 602.72949,314.66211 L 603.01953,314.96582 L 603.78027,314.11328 C 606.28418,304.65527 607.54785,294.70996 611.44141,285.88574 C 616.97461,273.1875 623.88379,260.37207 621.06836,245.04004 C 629.48438,263.11621 626.93457,287.26758 617.73535,304.14551 L 617.73535,304.14551 z"
       id="path3280"
       style="fill:#ffffff" />
    <path
       d="M 607.37109,206.75781 C 618.44336,221.76318 620.87012,245.67578 612.80566,262.8877 C 609.7998,270.18164 607.67676,277.9541 606.49609,286.02734 C 605.93262,284.63477 605.80371,282.7627 605.30078,281.21094 C 600.89648,264.36328 584.96289,252.35645 578.41016,236.47217 C 576.33203,231.27783 574.56055,225.91064 573.57812,220.27197 C 580.58008,233.22217 597.83594,239.91113 602.53906,254.18262 C 604.46582,257.79199 604.35742,262.30176 605.55273,266.18262 C 605.80371,266.18262 606.05469,265.99609 606.05469,265.74121 C 603.98438,251.04004 604.61621,235.65381 606.61133,221.13525 C 606.49609,213.271 605.72852,205.64258 601.35938,199.55518 C 604.16113,201.1875 605.42285,204.32275 607.37109,206.75781 L 607.37109,206.75781 z"
       id="path3282"
       style="fill:#ffffff" />
    <path
       d="M 599.56445,203.87744 C 602.47266,217.02637 598.22461,229.83203 600.89648,243.10742 L 600.79688,243.22168 C 593.64355,229.15527 578.45703,222.5166 568.00781,211.2583 C 561.95215,204.57764 559.31934,196.43555 557.80469,187.81445 C 563.79199,202.24902 579.94824,205.42969 589.22363,217.59326 C 592.32715,220.39746 593.33984,224.28223 595.34082,227.4624 L 595.66797,227.14648 C 590.33398,215.75977 588.54687,202.94531 584.8252,190.80127 C 582.96191,185.53906 579.26367,180.36865 574.30176,177.05078 C 586.47754,179.53906 597.03027,192.25049 599.56445,203.87744 L 599.56445,203.87744 z"
       id="path3284"
       style="fill:#ffffff" />
    <path
       d="M 567.01172,173.72168 C 576.18164,181.92871 580.3291,192.55518 583.00684,203.56543 L 584.52148,207.06201 C 571.21191,197.48975 559.12109,184.62207 550.62207,171.03223 L 540.24219,160.53125 C 549.36719,164.40039 559.20508,166.70996 567.01172,173.72168 L 567.01172,173.72168 z"
       id="path3286"
       style="fill:#ffffff" />
    <path
       d="M 356.80566,162.27393 C 347.60547,170.33936 341.22461,180.53955 334.39941,190.05127 C 328.28125,197.62646 320.45508,202.62158 313.51953,209.13574 C 317.26367,201.37402 317.40039,192.10254 322.71094,184.97266 C 330.26758,171.78906 344.28027,167.15088 356.80566,162.27393 L 356.80566,162.27393 z"
       id="path3288"
       style="fill:#ffffff" />
    <path
       d="M 306.49219,190.35986 C 310.9668,184.79736 316.63965,180.93164 323.02344,179.29932 C 310.62793,187.81445 311.43457,203.07422 307.50488,215.75977 C 306.25195,220.45068 304.07617,224.77246 302.99219,229.58105 L 303.30762,229.83203 C 305.37012,224.396 308.99512,219.25977 313.51953,214.82422 C 322.32324,206.69727 335.34668,201.63232 339.66113,189.61035 C 339.46387,206.31641 325.52734,219.4502 312.19238,228.83936 C 306.69336,233.66357 301.39063,239.16162 298.3623,245.36328 C 298.06543,241.14844 298.98535,236.9165 298.68555,232.40137 C 297.23535,217.81787 296.18164,201.17236 306.49219,190.35986 L 306.49219,190.35986 z"
       id="path3290"
       style="fill:#ffffff" />
    <path
       d="M 281.41211,240.22754 C 281.03906,225.44922 287.17285,213.38574 295.81641,202.37451 C 296.06738,202.24902 296.24609,201.99805 296.56934,202.05859 C 287.05469,216.51709 294.92578,234.729 294.49219,251.16895 L 293.2373,268.00098 C 293.42383,268.12305 293.42383,268.62891 293.86523,268.43457 C 294.42773,266.55859 294.5498,264.55371 294.92578,262.62402 C 297.16699,249.04688 308.95801,239.41309 319.25684,230.03027 C 321.45605,227.57617 323.40039,225.08447 324.53027,222.20459 C 323.68945,228.96484 321.57031,235.7832 318.76563,242.03516 C 310.75,257.66699 295.94238,270.49316 293.2373,288.38965 C 291.9248,271.23926 280.24805,258.41699 281.41211,240.22754 L 281.41211,240.22754 z"
       id="path3292"
       style="fill:#ffffff" />
    <path
       d="M 274.21387,261.24316 C 275.2793,256.62109 276.09375,251.83789 278.10547,247.59668 C 274.29395,267.13379 287.43457,281.21094 291.74512,298.14551 C 293.54883,304.47949 293.99023,311.28223 296.56934,317.22559 C 296.80957,317.35547 297.01855,317.10449 297.16699,316.91406 C 290.74902,298.9248 300.01367,282.20801 309.32324,268.12305 C 311.58691,264.30664 312.8916,260.05664 314.01758,255.66992 C 315.00684,263.81152 312.94824,273.1875 311.76563,281.64062 C 309.50195,292.39648 306.12305,302.59668 303.18164,313.0332 C 301.24609,319.55469 301.75488,326.91211 302.74902,333.74512 L 301.81641,333 C 294.99121,320.41406 281.47656,310.59766 277.46289,296.84766 C 274.16016,285.88574 271.96484,273.1875 274.21387,261.24316 L 274.21387,261.24316 z"
       id="path3294"
       style="fill:#ffffff" />
    <path
       d="M 273.59766,299.40137 C 275.10059,320.10938 297.36914,331.05176 307.69141,348.19531 C 310.13379,351.70312 312.25293,355.58398 315.5166,358.52051 C 315.00684,356.31445 312.94824,354.45801 312.19238,352.19824 C 308.58105,345.00781 307.26465,336.43945 308.13281,327.74902 C 309.13281,317.17188 313.56934,307.35645 311.87598,296.23145 C 320.94629,315.78809 318.19141,340.19824 323.2627,361.38965 C 324.59082,366.02441 327.27344,370.16309 329.03125,374.59277 C 310.39551,361.90039 284.98438,349.82422 276.7168,326.5625 C 273.23242,318.54199 272.84375,308.6123 273.59766,299.40137 L 273.59766,299.40137 z"
       id="path3296"
       style="fill:#ffffff" />
    <path
       d="M 284.72949,346.95508 C 295.12012,370.46094 321.14355,372.4082 338.5918,386.72168 C 341.80273,389.56738 345.16699,391.9873 348.79199,393.67578 L 348.97852,393.48633 C 344.97266,389.86426 340.33887,385.73926 337.53418,381.04492 C 327.32227,366.8457 330.91406,346.95508 323.2627,331.68359 C 330.21484,340 336.53711,348.64453 340.73438,358.0791 C 346.97754,373.48047 349.36328,390.87598 363.80957,402.51807 C 348.17578,397.36572 329.86035,398.80518 316.06152,389.17871 C 300.99512,379.91895 287.54883,364.21289 284.72949,346.95508 L 284.72949,346.95508 z"
       id="path3298"
       style="fill:#ffffff" />
    <path
       d="M 311.43457,390.80664 C 328.09473,409.75439 355.31738,403.43213 377.50977,408.39111 C 380.64453,408.81885 383.51367,410.07471 386.83594,409.56494 C 384.19043,407.89111 380.51953,408.07275 377.63184,406.55127 C 360.23633,400.43994 357.68457,381.60742 348.24121,368.9082 C 360.30566,376.91992 370.44824,387.72559 381.57813,398.1958 C 389.57813,405.20361 399.20801,408.43799 409.35449,410.50049 C 406.91602,411.39111 403.71973,411.14697 401.10254,411.83252 C 382.87402,416.31494 362.62207,423.64111 343.29102,417.08252 C 330.72363,413.12549 317.75781,403.18799 311.43457,390.80664 L 311.43457,390.80664 z"
       id="path3300"
       style="fill:#ffffff" />
    <path
       d="M 537.55664,434.97314 C 518.7832,441.979 499.19043,434.65283 484.52734,423.53369 C 478.59082,419.76025 473.35742,414.32666 465.67871,414.80713 C 462.89355,414.75439 460.20801,414.89111 457.84082,415.57471 C 472.08594,422.20361 485.31836,431.34229 497.41699,443.02979 C 495.37793,445.35791 492.7373,447.53564 490.25,449.54346 C 478.59082,436.98096 465.67871,424.88916 451.22168,417.82666 C 448.39063,418.19385 445.69727,419.89697 443.14453,421.26807 C 431.375,428.70947 419.7373,438.28174 410.9873,450.00049 L 403.46875,443.7915 C 415.46875,431.65283 428.74219,422.20361 443.2627,415.45361 C 428.99414,410.93408 419.68066,422.88721 408.84961,428.96729 C 396.22852,437.77979 378.07715,441.91846 362.82422,435.83838 C 354.62109,432.72705 346.67383,428.14502 340.73438,420.69775 C 352.73828,428.96729 370.61621,429.83447 384.26758,424.46338 C 402.58594,416.51807 421.62109,406.4458 443.7041,411.26221 C 447.15039,411.32275 450.49902,414.75439 453.75488,411.83252 C 470.16797,407.5708 488.75,410.50049 502.88086,418.00244 L 517.44531,423.84033 C 530.98242,428.84619 548.48438,427.46143 560.08789,419.21338 C 554.12207,426.63916 545.97266,431.95947 537.55664,434.97314 L 537.55664,434.97314 z"
       id="path3302"
       style="fill:#ffffff" />
    <path
       d="M 557.6748,415.57471 C 536.59668,423.53369 515.3916,413.76416 495.19531,410.50049 L 491.30664,410.00635 L 491.30664,409.8833 C 500.96387,407.69189 510.33789,404.81689 518.02441,397.87744 C 529.3457,386.99512 539.41992,375.79395 551.99219,367.21875 C 542.66895,379.17285 541.68066,396.18799 526.2793,403.87354 C 522.46777,406.36768 517.65723,406.80908 513.72363,408.69775 C 519.33301,408.81885 524.46875,406.80908 530.02344,406.24658 C 550.67578,403.00439 574.30176,406.33057 588.79004,388.7373 C 583.41113,400.99658 569.94043,411.26221 557.6748,415.57471 L 557.6748,415.57471 z"
       id="path3304"
       style="fill:#ffffff" />
    <path
       d="M 595.97266,356.26855 C 587.64844,361.7168 579.21094,366.76953 571.21191,372.96387 L 571.21191,372.20312 C 583.46387,351.84082 577.47461,323.86816 585.02344,301.45898 L 587.83887,293.95215 C 586.26367,307.91211 592.32715,319.7373 591.90137,333.74512 C 591.47559,342.20703 588.71387,349.70996 584.27051,356.4668 L 585.02344,356.4668 C 591.02637,348.58301 595.71387,340.19824 602.72949,332.68848 C 613.61914,322.1875 624.69043,311.41992 626.12012,296.84766 C 629.81836,321.1748 616.16797,342.49609 595.97266,356.26855 L 595.97266,356.26855 z"
       id="path3306"
       style="fill:#ffffff" />
  </g>
  <path
     d="M 302.34544,280.26831 C 301.8647,273.39336 301.8647,266.49324 302.34544,259.61829 L 450,269.9433 L 302.34544,280.26831 z"
     id="path3472"
     style="fill:#ffffff;fill-opacity:1;fill-rule:evenodd;stroke:none;stroke-width:20;stroke-linecap:square;stroke-linejoin:miter;marker:none;marker-start:none;marker-mid:none;marker-end:none;stroke-miterlimit:4;stroke-dasharray:none;stroke-dashoffset:0;stroke-opacity:1;visibility:visible;display:inline;overflow:visible;enable-background:accumulate" />
  <use
     transform="matrix(0.9396926,-0.3420201,0.3420201,0.9396926,-65.187738,170.18864)"
     id="use3482"
     x="0"
     y="0"
     width="900"
     height="600"
     xlink:href="#path3472" />
  <use
     transform="matrix(0.7660444,-0.6427876,0.6427876,0.7660444,-68.236215,352.40915)"
     id="use3484"
     x="0"
     y="0"
     width="900"
     height="600"
     xlink:href="#path3472" />
  <use
     transform="matrix(0.5,-0.8660254,0.8660254,0.5,-8.777757,524.68306)"
     id="use3486"
     x="0"
     y="0"
     width="900"
     height="600"
     xlink:href="#path3472" />
  <use
     transform="matrix(0.1736482,-0.9848077,0.9848077,0.1736482,106.01606,666.23161)"
     id="use3488"
     x="0"
     y="0"
     width="900"
     height="600"
     xlink:href="#path3472" />
  <use
     transform="matrix(-0.1736481,-0.9848077,0.9848077,-0.1736481,262.29941,759.98197)"
     id="use3490"
     x="0"
     y="0"
     width="900"
     height="600"
     xlink:href="#path3472" />
  <use
     transform="matrix(-0.5,-0.8660254,0.8660254,-0.5,441.22222,794.62636)"
     id="use3492"
     x="0"
     y="0"
     width="900"
     height="600"
     xlink:href="#path3472" />
  <use
     transform="matrix(-0.7660444,-0.6427876,0.6427876,-0.7660444,621.20376,765.98633)"
     id="use3494"
     x="0"
     y="0"
     width="900"
     height="600"
     xlink:href="#path3472" />
  <use
     transform="matrix(-0.9396926,-0.3420202,0.3420202,-0.9396926,780.5356,677.51608)"
     id="use3496"
     x="0"
     y="0"
     width="900"
     height="600"
     xlink:href="#path3472" />
  <use
     transform="matrix(-1,-3.3603612e-8,3.3603612e-8,-1,900.00001,539.88654)"
     id="use3498"
     x="0"
     y="0"
     width="900"
     height="600"
     xlink:href="#path3472" />
  <use
     transform="matrix(-0.9396926,0.3420201,-0.3420201,-0.9396926,965.18771,369.69791)"
     id="use3500"
     x="0"
     y="0"
     width="900"
     height="600"
     xlink:href="#path3472" />
  <use
     transform="matrix(-0.7660444,0.6427876,-0.6427876,-0.7660444,968.23615,187.47741)"
     id="use3502"
     x="0"
     y="0"
     width="900"
     height="600"
     xlink:href="#path3472" />
  <use
     transform="matrix(-0.5,0.8660253,-0.8660253,-0.5,908.77778,15.203471)"
     id="use3504"
     x="0"
     y="0"
     width="900"
     height="600"
     xlink:href="#path3472" />
  <use
     transform="matrix(-0.1736482,0.9848077,-0.9848077,-0.1736482,793.98394,-126.34508)"
     id="use3506"
     x="0"
     y="0"
     width="900"
     height="600"
     xlink:href="#path3472" />
  <use
     transform="matrix(0.5,0.8660254,-0.8660254,0.5,458.77777,-254.73985)"
     id="use3510"
     x="0"
     y="0"
     width="900"
     height="600"
     xlink:href="#path3472" />
  <use
     transform="matrix(0.7660444,0.6427877,-0.6427877,0.7660444,278.79619,-226.09972)"
     id="use3512"
     x="0"
     y="0"
     width="900"
     height="600"
     xlink:href="#path3472" />
  <use
     transform="matrix(0.9396926,0.3420202,-0.3420202,0.9396926,119.46435,-137.62953)"
     id="use3514"
     x="0"
     y="0"
     width="900"
     height="600"
     xlink:href="#path3472" />
  <path
     d="M 569.09263,269.94325 C 569.09263,335.71629 515.77304,389.03588 450,389.03588 C 384.22696,389.03588 330.90737,335.71629 330.90737,269.94325 C 330.90737,204.17021 384.22696,150.85062 450,150.85062 C 515.77304,150.85062 569.09263,204.17021 569.09263,269.94325 z"
     id="path3520"
     style="fill:#5b92e5;fill-opacity:1;fill-rule:evenodd;stroke:none;stroke-width:5;stroke-linecap:square;stroke-linejoin:miter;marker:none;marker-start:none;marker-mid:none;marker-end:none;stroke-miterlimit:4;stroke-dasharray:none;stroke-dashoffset:0;stroke-opacity:1;visibility:visible;display:inline;overflow:visible;enable-background:accumulate" />
  <path
     d="M 338.095,319.76662 C 322.1463,283.94527 324.3103,242.65369 343.91598,208.69567 C 363.52165,174.73764 398.1992,152.21777 437.19575,148.11907"
     id="path3480"
     style="fill:none;fill-opacity:1;fill-rule:evenodd;stroke:#ffffff;stroke-width:20;stroke-linecap:butt;stroke-linejoin:miter;marker:none;marker-start:none;marker-mid:none;marker-end:none;stroke-miterlimit:4;stroke-dasharray:none;stroke-dashoffset:0;stroke-opacity:1;visibility:visible;display:inline;overflow:visible;enable-background:accumulate" />
  <use
     transform="matrix(-0.5,-0.8660254,0.8660254,-0.5,441.22222,794.62626)"
     id="use3516"
     x="0"
     y="0"
     width="900"
     height="600"
     xlink:href="#path3480" />
  <use
     transform="matrix(-0.5,0.8660254,-0.8660254,-0.5,908.77766,15.203515)"
     id="use3518"
     x="0"
     y="0"
     width="900"
     height="600"
     xlink:href="#path3480" />
  <text
     x="458.20737"
     y="351.05698"
     id="text3530"
     xml:space="preserve"
     style="font-size:245.01609802px;font-style:normal;font-variant:normal;font-weight:normal;font-stretch:normal;text-align:center;line-height:125%;writing-mode:lr-tb;text-anchor:middle;fill:#ffffff;fill-opacity:1;stroke:none;stroke-width:1px;stroke-linecap:butt;stroke-linejoin:miter;stroke-opacity:1;font-family:Times New Roman;-inkscape-font-specification:Times New Roman"><tspan
       x="458.20737"
       y="351.05698"
       id="tspan3532">L</tspan></text>
  <text
     x="358.96033"
     y="310.00418"
     id="text3522"
     xml:space="preserve"
     style="font-size:145.54823303px;font-style:normal;font-variant:normal;font-weight:normal;font-stretch:normal;text-align:start;line-height:125%;writing-mode:lr-tb;text-anchor:start;fill:#ffffff;fill-opacity:1;stroke:none;stroke-width:1px;stroke-linecap:butt;stroke-linejoin:miter;stroke-opacity:1;font-family:Times New Roman;-inkscape-font-specification:Times New Roman"><tspan
       x="358.96033"
       y="310.00418"
       id="tspan3524">I O</tspan></text>
</svg>
